<svg width="57" height="16" xmlns="http://www.w3.org/2000/svg"><defs><linearGradient x1="50%" y1="0%" x2="50%" y2="100%" id="a"><stop stop-color="#8BD1E3" offset="0%"/><stop stop-color="#72CAE0" offset="100%"/></linearGradient><linearGradient x1="50%" y1="0%" x2="50%" y2="100%" id="b"><stop stop-color="#8ED3E4" offset="0%"/><stop stop-color="#82CFE2" offset="100%"/></linearGradient><linearGradient x1="50%" y1="0%" x2="50%" y2="100%" id="c"><stop stop-color="#8BD1E3" offset="0%"/><stop stop-color="#73CBE0" offset="100%"/></linearGradient><linearGradient x1="50%" y1="0%" x2="50%" y2="100%" id="d"><stop stop-color="#80CEE2" offset="0%"/><stop stop-color="#76CBE1" offset="100%"/></linearGradient><linearGradient x1="50%" y1="0%" x2="50%" y2="100%" id="e"><stop stop-color="#A4DCFF" offset="0%"/><stop stop-color="#549AC2" offset="100%"/></linearGradient><linearGradient x1="50%" y1="0%" x2="50%" y2="100%" id="f"><stop stop-color="#9AD1F3" offset="0%"/><stop stop-color="#87C4E9" offset="100%"/></linearGradient><linearGradient x1="50%" y1="0%" x2="50%" y2="100%" id="g"><stop stop-color="#A4DCFF" offset="0%"/><stop stop-color="#589DC5" offset="100%"/></linearGradient><linearGradient x1="50%" y1="0%" x2="50%" y2="100%" id="h"><stop stop-color="#81BFE4" offset="0%"/><stop stop-color="#62A5CD" offset="100%"/></linearGradient></defs><g fill="none" fill-rule="evenodd"><path d="M0-2h57v18H0z"/><path d="M10.416 2H2v12h13V9.9a4.977 4.977 0 0 0 2-.9v5a2 2 0 0 1-2 2H2a2 2 0 0 1-2-2V2a2 2 0 0 1 2-2h10a5.018 5.018 0 0 0-1.584 2z" fill="url(#a)"/><path d="M6.201 5.495c.385.63 1.526 1.091 1.798 1.046A2 2 0 1 1 6.127 3.3c-.174.213-.31 1.567.074 2.195z" fill="url(#b)"/><path fill="url(#c)" d="M14 3V0h2v3h3v2h-3v3h-2V5h-3V3z"/><path fill="url(#d)" d="M7.067 11.133L10 6l4 7H3l2.5-5z"/><g><path d="M10.416 2H2v12h13V9.9a4.977 4.977 0 0 0 2-.9v5a2 2 0 0 1-2 2H2a2 2 0 0 1-2-2V2a2 2 0 0 1 2-2h10a5.018 5.018 0 0 0-1.584 2z" fill="url(#e)" transform="translate(20)"/><path d="M6.2 5.5c.385.629 1.526 1.09 1.798 1.046a2 2 0 1 1-1.872-3.241c-.174.213-.31 1.566.074 2.195z" fill="url(#f)" transform="translate(20)"/><path fill="url(#g)" d="M14 3V0h2v3h3v2h-3v3h-2V5h-3V3z" transform="translate(20)"/><path fill="url(#h)" d="M7.067 11.133L10 6l4 7H3l2.5-5z" transform="translate(20)"/></g><g transform="translate(41 1)"><path d="M5.2 4.5c.385.629 1.526 1.09 1.798 1.046a2 2 0 1 1-1.872-3.241c-.174.213-.31 1.566.074 2.195z" fill="url(#f)"/><path fill="url(#h)" d="M6.067 10.133L9 5l4 7H2l2.5-5z"/><rect stroke="url(#e)" stroke-width="2" width="15" height="14" rx="1"/></g></g></svg>