<?xml version="1.0" encoding="UTF-8"?>
<svg width="80px" height="96px" viewBox="0 0 80 96" version="1.1" xmlns="http://www.w3.org/2000/svg" xmlns:xlink="http://www.w3.org/1999/xlink">
    <title>msg-icons</title>
    <g id="Page-1" stroke="none" stroke-width="1" fill="none" fill-rule="evenodd">
        <g id="msg-icons" transform="translate(0.500000, 0.500000)" fill-rule="nonzero">
            <g id="Group" transform="translate(40.000000, 80.000000)">
                <rect id="Rectangle" stroke="#AFAFAF" fill="#777777" x="0" y="0" width="39" height="15" rx="3"></rect>
                <polygon id="Shape" fill="#FFFFFF" points="8.44 8.5 3.5 8.5 3.5 6.5 8.44 6.5 8.44 3.5 12.5 7.5 8.44 11.5"></polygon>
                <path d="M28.5,11.5 L28.5,12.5 L26.5,12.5 L26.5,11.5 L28.5,11.5 Z M35.5,11.5 L35.5,12.5 L33.5,12.5 L33.5,11.5 L35.5,11.5 Z M23.5,2.5 L23.5,3.5 L20.5,3.5 L20.5,4.5 L24.5,4.5 L24.5,5.5 L23.5,5.5 L23.5,8.5 L20.5,8.5 L20.5,9.5 L23.5,9.5 L23.5,10.5 L20.5,10.5 L20.5,11.5 L24.5,11.5 L24.5,12.5 L14.5,12.5 L14.5,11.5 L19.5,11.5 L19.5,10.5 L15.5,10.5 L15.5,9.5 L19.5,9.5 L19.5,8.5 L15.5,8.5 L15.5,5.5 L14.5,5.5 L14.5,4.5 L19.5,4.5 L19.5,3.5 L15.5,3.5 L15.5,2.5 L23.5,2.5 Z M33.5,10.5 L33.5,11.5 L31.5,11.5 L31.5,10.5 L33.5,10.5 Z M30.5,10.5 L30.5,11.5 L28.5,11.5 L28.5,10.5 L30.5,10.5 Z M26.5,10.5 L26.5,11.5 L25.5,11.5 L25.5,10.5 L26.5,10.5 Z M31.5,9.5 L31.5,10.5 L30.5,10.5 L30.5,9.5 L31.5,9.5 Z M27.5,9.5 L27.5,10.5 L26.5,10.5 L26.5,9.5 L27.5,9.5 Z M32.5,8.5 L32.5,9.5 L31.5,9.5 L31.5,8.5 L32.5,8.5 Z M30.5,8.5 L30.5,9.5 L29.5,9.5 L29.5,8.5 L30.5,8.5 Z M28.5,8.5 L28.5,9.5 L27.5,9.5 L27.5,8.5 L28.5,8.5 Z M30.5,2.5 L30.5,4.5 L32.5,4.5 L32.5,3.5 L33.5,3.5 L33.5,4.5 L35.5,4.5 L35.5,5.5 L29.5,5.5 L29.5,6.5 L33.5,6.5 L33.5,8.5 L32.5,8.5 L32.5,7.5 L29.5,7.5 L29.5,8.5 L28.5,8.5 L28.5,5.5 L25.5,5.5 L25.5,3.5 L26.5,3.5 L26.5,4.5 L29.5,4.5 L29.5,2.5 L30.5,2.5 Z M22.5,5.5 L20.5,5.5 L20.5,6.5 L21.5,6.5 L21.5,7.5 L22.5,7.5 L22.5,5.5 Z M17.5,5.5 L16.5,5.5 L16.5,7.5 L18.5,7.5 L18.5,6.5 L17.5,6.5 L17.5,5.5 Z M19.5,5.5 L18.5,5.5 L18.5,6.5 L19.5,6.5 L19.5,5.5 Z M27.5,2.5 L27.5,3.5 L26.5,3.5 L26.5,2.5 L27.5,2.5 Z M32.5,2.5 L32.5,3.5 L31.5,3.5 L31.5,2.5 L32.5,2.5 Z" id="Combined-Shape" fill="#FFFFFF"></path>
            </g>
            <g id="Group" transform="translate(0.000000, 80.000000)">
                <rect id="Rectangle" stroke="#C8C8C8" fill="#FFFFFF" x="0" y="0" width="39" height="15" rx="3"></rect>
                <polygon id="Path" fill="#888888" points="8.44 8.5 3.5 8.5 3.5 6.5 8.44 6.5 8.44 3.5 12.5 7.5 8.44 11.5"></polygon>
                <path d="M28.5,11.5 L28.5,12.5 L26.5,12.5 L26.5,11.5 L28.5,11.5 Z M35.5,11.5 L35.5,12.5 L33.5,12.5 L33.5,11.5 L35.5,11.5 Z M23.5,2.5 L23.5,3.5 L20.5,3.5 L20.5,4.5 L24.5,4.5 L24.5,5.5 L23.5,5.5 L23.5,8.5 L20.5,8.5 L20.5,9.5 L23.5,9.5 L23.5,10.5 L20.5,10.5 L20.5,11.5 L24.5,11.5 L24.5,12.5 L14.5,12.5 L14.5,11.5 L19.5,11.5 L19.5,10.5 L15.5,10.5 L15.5,9.5 L19.5,9.5 L19.5,8.5 L15.5,8.5 L15.5,5.5 L14.5,5.5 L14.5,4.5 L19.5,4.5 L19.5,3.5 L15.5,3.5 L15.5,2.5 L23.5,2.5 Z M33.5,10.5 L33.5,11.5 L31.5,11.5 L31.5,10.5 L33.5,10.5 Z M30.5,10.5 L30.5,11.5 L28.5,11.5 L28.5,10.5 L30.5,10.5 Z M26.5,10.5 L26.5,11.5 L25.5,11.5 L25.5,10.5 L26.5,10.5 Z M31.5,9.5 L31.5,10.5 L30.5,10.5 L30.5,9.5 L31.5,9.5 Z M27.5,9.5 L27.5,10.5 L26.5,10.5 L26.5,9.5 L27.5,9.5 Z M32.5,8.5 L32.5,9.5 L31.5,9.5 L31.5,8.5 L32.5,8.5 Z M30.5,8.5 L30.5,9.5 L29.5,9.5 L29.5,8.5 L30.5,8.5 Z M28.5,8.5 L28.5,9.5 L27.5,9.5 L27.5,8.5 L28.5,8.5 Z M30.5,2.5 L30.5,4.5 L32.5,4.5 L32.5,3.5 L33.5,3.5 L33.5,4.5 L35.5,4.5 L35.5,5.5 L29.5,5.5 L29.5,6.5 L33.5,6.5 L33.5,8.5 L32.5,8.5 L32.5,7.5 L29.5,7.5 L29.5,8.5 L28.5,8.5 L28.5,5.5 L25.5,5.5 L25.5,3.5 L26.5,3.5 L26.5,4.5 L29.5,4.5 L29.5,2.5 L30.5,2.5 Z M22.5,5.5 L20.5,5.5 L20.5,6.5 L21.5,6.5 L21.5,7.5 L22.5,7.5 L22.5,5.5 Z M17.5,5.5 L16.5,5.5 L16.5,7.5 L18.5,7.5 L18.5,6.5 L17.5,6.5 L17.5,5.5 Z M19.5,5.5 L18.5,5.5 L18.5,6.5 L19.5,6.5 L19.5,5.5 Z M27.5,2.5 L27.5,3.5 L26.5,3.5 L26.5,2.5 L27.5,2.5 Z M32.5,2.5 L32.5,3.5 L31.5,3.5 L31.5,2.5 L32.5,2.5 Z" id="Combined-Shape" fill="#777777"></path>
            </g>
            <g id="Group" transform="translate(40.000000, 64.000000)">
                <rect id="Rectangle" stroke="#AFAFAF" fill="#777777" x="0" y="0" width="39" height="15" rx="3"></rect>
                <path d="M8.44,8.5 L3.5,8.5 L3.5,6.5 L8.44,6.5 L8.44,3.5 L12.5,7.5 L8.44,11.5 L8.44,8.5 Z M32.5,7.5 L29.5,7.5 L29.5,8.5 L28.5,8.5 L28.5,5.5 L25.5,5.5 L25.5,3.5 L26.5,3.5 L26.5,4.5 L29.5,4.5 L29.5,2.5 L30.5,2.5 L30.5,4.5 L32.5,4.5 L32.5,3.5 L33.5,3.5 L33.5,4.5 L35.5,4.5 L35.5,5.5 L29.5,5.5 L29.5,6.5 L33.5,6.5 L33.5,8.5 L32.5,8.5 L32.5,7.5 Z M22.5,8.5 L19.5,8.5 L19.5,6.5 L18.5,6.5 L18.5,5.5 L20.5,5.5 L20.5,4.5 L19.5,4.5 L19.5,3.5 L20.5,3.5 L20.5,2.5 L21.5,2.5 L21.5,3.5 L23.5,3.5 L23.5,4.5 L21.5,4.5 L21.5,5.5 L24.5,5.5 L24.5,6.5 L20.5,6.5 L20.5,7.5 L23.5,7.5 L23.5,9.5 L22.5,9.5 L22.5,8.5 Z M16.5,10.5 L14.5,10.5 L14.5,9.5 L16.5,9.5 L16.5,7.5 L14.5,7.5 L14.5,5.5 L15.5,5.5 L15.5,6.5 L16.5,6.5 L16.5,5.5 L17.5,5.5 L17.5,6.5 L18.5,6.5 L18.5,7.5 L17.5,7.5 L17.5,8.5 L18.5,8.5 L18.5,9.5 L17.5,9.5 L17.5,12.5 L16.5,12.5 L16.5,10.5 Z M15.5,4.5 L14.5,4.5 L14.5,3.5 L15.5,3.5 L15.5,2.5 L16.5,2.5 L16.5,3.5 L18.5,3.5 L18.5,4.5 L16.5,4.5 L16.5,5.5 L15.5,5.5 L15.5,4.5 Z M19.5,9.5 L20.5,9.5 L20.5,10.5 L19.5,10.5 L19.5,9.5 Z M21.5,9.5 L22.5,9.5 L22.5,10.5 L21.5,10.5 L21.5,9.5 Z M20.5,10.5 L21.5,10.5 L21.5,11.5 L20.5,11.5 L20.5,10.5 Z M21.5,11.5 L22.5,11.5 L22.5,12.5 L21.5,12.5 L21.5,11.5 Z M26.5,2.5 L27.5,2.5 L27.5,3.5 L26.5,3.5 L26.5,2.5 Z M31.5,2.5 L32.5,2.5 L32.5,3.5 L31.5,3.5 L31.5,2.5 Z M31.5,8.5 L32.5,8.5 L32.5,9.5 L31.5,9.5 L31.5,8.5 Z M29.5,8.5 L30.5,8.5 L30.5,9.5 L29.5,9.5 L29.5,8.5 Z M30.5,9.5 L31.5,9.5 L31.5,10.5 L30.5,10.5 L30.5,9.5 Z M31.5,10.5 L33.5,10.5 L33.5,11.5 L31.5,11.5 L31.5,10.5 Z M28.5,10.5 L30.5,10.5 L30.5,11.5 L28.5,11.5 L28.5,10.5 Z M27.5,8.5 L28.5,8.5 L28.5,9.5 L27.5,9.5 L27.5,8.5 Z M26.5,9.5 L27.5,9.5 L27.5,10.5 L26.5,10.5 L26.5,9.5 Z M25.5,10.5 L26.5,10.5 L26.5,11.5 L25.5,11.5 L25.5,10.5 Z M26.5,11.5 L28.5,11.5 L28.5,12.5 L26.5,12.5 L26.5,11.5 Z M33.5,11.5 L35.5,11.5 L35.5,12.5 L33.5,12.5 L33.5,11.5 Z" id="Shape" fill="#FFFFFF"></path>
            </g>
            <g id="Group" transform="translate(0.000000, 64.000000)">
                <rect id="Rectangle" stroke="#C8C8C8" fill="#FFFFFF" x="0" y="0" width="39" height="15" rx="3"></rect>
                <polygon id="Path" fill="#888888" points="8.44 8.5 3.5 8.5 3.5 6.5 8.44 6.5 8.44 3.5 12.5 7.5 8.44 11.5"></polygon>
                <path d="M32.5,7.5 L29.5,7.5 L29.5,8.5 L28.5,8.5 L28.5,5.5 L25.5,5.5 L25.5,3.5 L26.5,3.5 L26.5,4.5 L29.5,4.5 L29.5,2.5 L30.5,2.5 L30.5,4.5 L32.5,4.5 L32.5,3.5 L33.5,3.5 L33.5,4.5 L35.5,4.5 L35.5,5.5 L29.5,5.5 L29.5,6.5 L33.5,6.5 L33.5,8.5 L32.5,8.5 L32.5,7.5 Z M22.5,8.5 L19.5,8.5 L19.5,6.5 L18.5,6.5 L18.5,5.5 L20.5,5.5 L20.5,4.5 L19.5,4.5 L19.5,3.5 L20.5,3.5 L20.5,2.5 L21.5,2.5 L21.5,3.5 L23.5,3.5 L23.5,4.5 L21.5,4.5 L21.5,5.5 L24.5,5.5 L24.5,6.5 L20.5,6.5 L20.5,7.5 L23.5,7.5 L23.5,9.5 L22.5,9.5 L22.5,8.5 Z M16.5,10.5 L14.5,10.5 L14.5,9.5 L16.5,9.5 L16.5,7.5 L14.5,7.5 L14.5,5.5 L15.5,5.5 L15.5,6.5 L16.5,6.5 L16.5,5.5 L17.5,5.5 L17.5,6.5 L18.5,6.5 L18.5,7.5 L17.5,7.5 L17.5,8.5 L18.5,8.5 L18.5,9.5 L17.5,9.5 L17.5,12.5 L16.5,12.5 L16.5,10.5 Z M15.5,4.5 L14.5,4.5 L14.5,3.5 L15.5,3.5 L15.5,2.5 L16.5,2.5 L16.5,3.5 L18.5,3.5 L18.5,4.5 L16.5,4.5 L16.5,5.5 L15.5,5.5 L15.5,4.5 Z M19.5,9.5 L20.5,9.5 L20.5,10.5 L19.5,10.5 L19.5,9.5 Z M21.5,9.5 L22.5,9.5 L22.5,10.5 L21.5,10.5 L21.5,9.5 Z M20.5,10.5 L21.5,10.5 L21.5,11.5 L20.5,11.5 L20.5,10.5 Z M21.5,11.5 L22.5,11.5 L22.5,12.5 L21.5,12.5 L21.5,11.5 Z M26.5,2.5 L27.5,2.5 L27.5,3.5 L26.5,3.5 L26.5,2.5 Z M31.5,2.5 L32.5,2.5 L32.5,3.5 L31.5,3.5 L31.5,2.5 Z M31.5,8.5 L32.5,8.5 L32.5,9.5 L31.5,9.5 L31.5,8.5 Z M29.5,8.5 L30.5,8.5 L30.5,9.5 L29.5,9.5 L29.5,8.5 Z M30.5,9.5 L31.5,9.5 L31.5,10.5 L30.5,10.5 L30.5,9.5 Z M31.5,10.5 L33.5,10.5 L33.5,11.5 L31.5,11.5 L31.5,10.5 Z M28.5,10.5 L30.5,10.5 L30.5,11.5 L28.5,11.5 L28.5,10.5 Z M27.5,8.5 L28.5,8.5 L28.5,9.5 L27.5,9.5 L27.5,8.5 Z M26.5,9.5 L27.5,9.5 L27.5,10.5 L26.5,10.5 L26.5,9.5 Z M25.5,10.5 L26.5,10.5 L26.5,11.5 L25.5,11.5 L25.5,10.5 Z M26.5,11.5 L28.5,11.5 L28.5,12.5 L26.5,12.5 L26.5,11.5 Z M33.5,11.5 L35.5,11.5 L35.5,12.5 L33.5,12.5 L33.5,11.5 Z" id="Shape" fill="#777777"></path>
            </g>
            <g id="Group" transform="translate(40.000000, 48.000000)">
                <rect id="Rectangle" stroke="#AFAFAF" fill="#777777" x="0" y="0" width="39" height="15" rx="3"></rect>
                <path d="M7.5,10.5 L4.561,12.045 L5.122,8.773 L2.745,6.455 L6.031,5.977 L7.5,3 L8.97,5.977 L12.255,6.455 L9.878,8.773 L10.438,12.045 L7.5,10.5 Z M34.5,9.5 L34.5,8.5 L30.5,8.5 L30.5,9.5 L34.5,9.5 Z M34.5,10.5 L30.5,10.5 L30.5,12.5 L29.5,12.5 L29.5,5.5 L31.5,5.5 L31.5,2.5 L32.5,2.5 L32.5,5.5 L34.5,5.5 L34.5,4.5 L35.5,4.5 L35.5,12.5 L33.5,12.5 L33.5,11.5 L34.5,11.5 L34.5,10.5 Z M34.5,7.5 L34.5,6.5 L30.5,6.5 L30.5,7.5 L34.5,7.5 Z M26.5,10.5 L25.5,10.5 L25.5,9.5 L26.5,9.5 L26.5,8.5 L27.5,8.5 L27.5,12.5 L26.5,12.5 L26.5,10.5 Z M16.5,9.5 L17.5,9.5 L17.5,8.5 L16.5,8.5 L16.5,9.5 Z M17.5,10.5 L15.5,10.5 L15.5,3.5 L14.5,3.5 L14.5,2.5 L19.5,2.5 L19.5,3.5 L18.5,3.5 L18.5,12.5 L17.5,12.5 L17.5,10.5 Z M16.5,7.5 L17.5,7.5 L17.5,5.5 L16.5,5.5 L16.5,7.5 Z M16.5,4.5 L17.5,4.5 L17.5,3.5 L16.5,3.5 L16.5,4.5 Z M23.5,4.5 L20.5,4.5 L20.5,7.5 L19.5,7.5 L19.5,3.5 L24.5,3.5 L24.5,7.5 L23.5,7.5 L23.5,4.5 Z M14.5,10.5 L15.5,10.5 L15.5,11.5 L14.5,11.5 L14.5,10.5 Z M20.5,7.5 L21.5,7.5 L21.5,9.5 L20.5,9.5 L20.5,7.5 Z M22.5,7.5 L23.5,7.5 L23.5,9.5 L22.5,9.5 L22.5,7.5 Z M21.5,9.5 L22.5,9.5 L22.5,10.5 L21.5,10.5 L21.5,9.5 Z M20.5,10.5 L21.5,10.5 L21.5,11.5 L20.5,11.5 L20.5,10.5 Z M19.5,11.5 L20.5,11.5 L20.5,12.5 L19.5,12.5 L19.5,11.5 Z M22.5,10.5 L23.5,10.5 L23.5,11.5 L22.5,11.5 L22.5,10.5 Z M23.5,11.5 L24.5,11.5 L24.5,12.5 L23.5,12.5 L23.5,11.5 Z M25.5,2.5 L26.5,2.5 L26.5,3.5 L25.5,3.5 L25.5,2.5 Z M26.5,3.5 L27.5,3.5 L27.5,4.5 L26.5,4.5 L26.5,3.5 Z M25.5,5.5 L26.5,5.5 L26.5,6.5 L25.5,6.5 L25.5,5.5 Z M26.5,6.5 L27.5,6.5 L27.5,7.5 L26.5,7.5 L26.5,6.5 Z M27.5,7.5 L28.5,7.5 L28.5,8.5 L27.5,8.5 L27.5,7.5 Z M29.5,3.5 L30.5,3.5 L30.5,4.5 L29.5,4.5 L29.5,3.5 Z M28.5,4.5 L29.5,4.5 L29.5,5.5 L28.5,5.5 L28.5,4.5 Z M33.5,3.5 L34.5,3.5 L34.5,4.5 L33.5,4.5 L33.5,3.5 Z" id="Shape" fill="#FFFFFF"></path>
            </g>
            <g id="Group" transform="translate(0.000000, 48.000000)">
                <rect id="Rectangle" stroke="#C8C8C8" fill="#FFFFFF" x="0" y="0" width="39" height="15" rx="3"></rect>
                <polygon id="Path" stroke="#FFC919" fill="#FFDD33" points="7.5 10.75 4.267 12.45 4.885 8.85 2.269 6.3 5.884 5.775 7.5 2.5 9.116 5.775 12.731 6.3 10.115 8.85 10.733 12.45"></polygon>
                <path d="M34.5,9.5 L34.5,8.5 L30.5,8.5 L30.5,9.5 L34.5,9.5 Z M34.5,10.5 L30.5,10.5 L30.5,12.5 L29.5,12.5 L29.5,5.5 L31.5,5.5 L31.5,2.5 L32.5,2.5 L32.5,5.5 L34.5,5.5 L34.5,4.5 L35.5,4.5 L35.5,12.5 L33.5,12.5 L33.5,11.5 L34.5,11.5 L34.5,10.5 Z M34.5,7.5 L34.5,6.5 L30.5,6.5 L30.5,7.5 L34.5,7.5 Z M26.5,10.5 L25.5,10.5 L25.5,9.5 L26.5,9.5 L26.5,8.5 L27.5,8.5 L27.5,12.5 L26.5,12.5 L26.5,10.5 Z M16.5,9.5 L17.5,9.5 L17.5,8.5 L16.5,8.5 L16.5,9.5 Z M17.5,10.5 L15.5,10.5 L15.5,3.5 L14.5,3.5 L14.5,2.5 L19.5,2.5 L19.5,3.5 L18.5,3.5 L18.5,12.5 L17.5,12.5 L17.5,10.5 Z M16.5,7.5 L17.5,7.5 L17.5,5.5 L16.5,5.5 L16.5,7.5 Z M16.5,4.5 L17.5,4.5 L17.5,3.5 L16.5,3.5 L16.5,4.5 Z M23.5,4.5 L20.5,4.5 L20.5,7.5 L19.5,7.5 L19.5,3.5 L24.5,3.5 L24.5,7.5 L23.5,7.5 L23.5,4.5 Z M14.5,10.5 L15.5,10.5 L15.5,11.5 L14.5,11.5 L14.5,10.5 Z M20.5,7.5 L21.5,7.5 L21.5,9.5 L20.5,9.5 L20.5,7.5 Z M22.5,7.5 L23.5,7.5 L23.5,9.5 L22.5,9.5 L22.5,7.5 Z M21.5,9.5 L22.5,9.5 L22.5,10.5 L21.5,10.5 L21.5,9.5 Z M20.5,10.5 L21.5,10.5 L21.5,11.5 L20.5,11.5 L20.5,10.5 Z M19.5,11.5 L20.5,11.5 L20.5,12.5 L19.5,12.5 L19.5,11.5 Z M22.5,10.5 L23.5,10.5 L23.5,11.5 L22.5,11.5 L22.5,10.5 Z M23.5,11.5 L24.5,11.5 L24.5,12.5 L23.5,12.5 L23.5,11.5 Z M25.5,2.5 L26.5,2.5 L26.5,3.5 L25.5,3.5 L25.5,2.5 Z M26.5,3.5 L27.5,3.5 L27.5,4.5 L26.5,4.5 L26.5,3.5 Z M25.5,5.5 L26.5,5.5 L26.5,6.5 L25.5,6.5 L25.5,5.5 Z M26.5,6.5 L27.5,6.5 L27.5,7.5 L26.5,7.5 L26.5,6.5 Z M27.5,7.5 L28.5,7.5 L28.5,8.5 L27.5,8.5 L27.5,7.5 Z M29.5,3.5 L30.5,3.5 L30.5,4.5 L29.5,4.5 L29.5,3.5 Z M28.5,4.5 L29.5,4.5 L29.5,5.5 L28.5,5.5 L28.5,4.5 Z M33.5,3.5 L34.5,3.5 L34.5,4.5 L33.5,4.5 L33.5,3.5 Z" id="Shape" fill="#777777"></path>
            </g>
            <g id="Group" transform="translate(40.000000, 32.000000)">
                <rect id="Rectangle" stroke="#AFAFAF" fill="#777777" x="0" y="0" width="39" height="15" rx="3"></rect>
                <path d="M8,6.248 L10.295,3.5 L11.5,4.56 L9.045,7.5 L11.5,10.44 L10.295,11.5 L8,8.752 L5.705,11.5 L4.5,10.44 L6.955,7.5 L4.5,4.56 L5.705,3.5 L8,6.248 Z M31.5,11.5 L31.5,8.5 L28.5,8.5 L28.5,10.5 L26.5,10.5 L26.5,12.5 L25.5,12.5 L25.5,2.5 L28.5,2.5 L28.5,5.5 L27.5,5.5 L27.5,3.5 L26.5,3.5 L26.5,5.5 L27.5,5.5 L27.5,6.5 L26.5,6.5 L26.5,9.5 L27.5,9.5 L27.5,6.5 L28.5,6.5 L28.5,7.5 L31.5,7.5 L31.5,6.5 L30.5,6.5 L30.5,5.5 L33.5,5.5 L33.5,6.5 L32.5,6.5 L32.5,7.5 L34.5,7.5 L34.5,8.5 L32.5,8.5 L32.5,12.5 L30.5,12.5 L30.5,11.5 L31.5,11.5 Z M23.5,7.5 L22.5,7.5 L22.5,12.5 L21.5,12.5 L21.5,7.5 L20.5,7.5 L20.5,12.5 L19.5,12.5 L19.5,7.5 L18.5,7.5 L18.5,12.5 L17.5,12.5 L17.5,7.5 L16.5,7.5 L16.5,12.5 L15.5,12.5 L15.5,7.5 L14.5,7.5 L14.5,6.5 L15.5,6.5 L15.5,2.5 L18.5,2.5 L18.5,6.5 L19.5,6.5 L19.5,2.5 L22.5,2.5 L22.5,6.5 L23.5,6.5 L23.5,2.5 L24.5,2.5 L24.5,12.5 L23.5,12.5 L23.5,7.5 Z M21.5,6.5 L21.5,3.5 L20.5,3.5 L20.5,6.5 L21.5,6.5 Z M16.5,3.5 L16.5,6.5 L17.5,6.5 L17.5,3.5 L16.5,3.5 Z M28.5,5.5 L29.5,5.5 L29.5,6.5 L28.5,6.5 L28.5,5.5 Z M29.5,9.5 L30.5,9.5 L30.5,10.5 L29.5,10.5 L29.5,9.5 Z M28.5,10.5 L29.5,10.5 L29.5,11.5 L28.5,11.5 L28.5,10.5 Z M33.5,9.5 L34.5,9.5 L34.5,10.5 L33.5,10.5 L33.5,9.5 Z M34.5,10.5 L35.5,10.5 L35.5,11.5 L34.5,11.5 L34.5,10.5 Z M29.5,4.5 L30.5,4.5 L30.5,5.5 L29.5,5.5 L29.5,4.5 Z M30.5,3.5 L31.5,3.5 L31.5,4.5 L30.5,4.5 L30.5,3.5 Z M31.5,2.5 L32.5,2.5 L32.5,3.5 L31.5,3.5 L31.5,2.5 Z M32.5,3.5 L33.5,3.5 L33.5,4.5 L32.5,4.5 L32.5,3.5 Z M33.5,4.5 L34.5,4.5 L34.5,5.5 L33.5,5.5 L33.5,4.5 Z M34.5,5.5 L35.5,5.5 L35.5,6.5 L34.5,6.5 L34.5,5.5 Z" id="Shape" fill="#FFFFFF"></path>
            </g>
            <g id="Group" transform="translate(0.000000, 32.000000)">
                <rect id="Rectangle" stroke="#C8C8C8" fill="#FFFFFF" x="0" y="0" width="39" height="15" rx="3"></rect>
                <polygon id="Path" fill="#888888" points="8.09 6.338 10.385 3.59 11.59 4.65 9.135 7.59 11.59 10.53 10.385 11.59 8.09 8.842 5.795 11.59 4.59 10.53 7.045 7.59 4.59 4.65 5.795 3.59"></polygon>
                <path d="M31.5,11.5 L31.5,8.5 L28.5,8.5 L28.5,10.5 L26.5,10.5 L26.5,12.5 L25.5,12.5 L25.5,2.5 L28.5,2.5 L28.5,5.5 L27.5,5.5 L27.5,3.5 L26.5,3.5 L26.5,5.5 L27.5,5.5 L27.5,6.5 L26.5,6.5 L26.5,9.5 L27.5,9.5 L27.5,6.5 L28.5,6.5 L28.5,7.5 L31.5,7.5 L31.5,6.5 L30.5,6.5 L30.5,5.5 L33.5,5.5 L33.5,6.5 L32.5,6.5 L32.5,7.5 L34.5,7.5 L34.5,8.5 L32.5,8.5 L32.5,12.5 L30.5,12.5 L30.5,11.5 L31.5,11.5 Z M23.5,7.5 L22.5,7.5 L22.5,12.5 L21.5,12.5 L21.5,7.5 L20.5,7.5 L20.5,12.5 L19.5,12.5 L19.5,7.5 L18.5,7.5 L18.5,12.5 L17.5,12.5 L17.5,7.5 L16.5,7.5 L16.5,12.5 L15.5,12.5 L15.5,7.5 L14.5,7.5 L14.5,6.5 L15.5,6.5 L15.5,2.5 L18.5,2.5 L18.5,6.5 L19.5,6.5 L19.5,2.5 L22.5,2.5 L22.5,6.5 L23.5,6.5 L23.5,2.5 L24.5,2.5 L24.5,12.5 L23.5,12.5 L23.5,7.5 Z M21.5,6.5 L21.5,3.5 L20.5,3.5 L20.5,6.5 L21.5,6.5 Z M16.5,3.5 L16.5,6.5 L17.5,6.5 L17.5,3.5 L16.5,3.5 Z M28.5,5.5 L29.5,5.5 L29.5,6.5 L28.5,6.5 L28.5,5.5 Z M29.5,9.5 L30.5,9.5 L30.5,10.5 L29.5,10.5 L29.5,9.5 Z M28.5,10.5 L29.5,10.5 L29.5,11.5 L28.5,11.5 L28.5,10.5 Z M33.5,9.5 L34.5,9.5 L34.5,10.5 L33.5,10.5 L33.5,9.5 Z M34.5,10.5 L35.5,10.5 L35.5,11.5 L34.5,11.5 L34.5,10.5 Z M29.5,4.5 L30.5,4.5 L30.5,5.5 L29.5,5.5 L29.5,4.5 Z M30.5,3.5 L31.5,3.5 L31.5,4.5 L30.5,4.5 L30.5,3.5 Z M31.5,2.5 L32.5,2.5 L32.5,3.5 L31.5,3.5 L31.5,2.5 Z M32.5,3.5 L33.5,3.5 L33.5,4.5 L32.5,4.5 L32.5,3.5 Z M33.5,4.5 L34.5,4.5 L34.5,5.5 L33.5,5.5 L33.5,4.5 Z M34.5,5.5 L35.5,5.5 L35.5,6.5 L34.5,6.5 L34.5,5.5 Z" id="Shape" fill="#777777"></path>
            </g>
            <g id="Group" transform="translate(40.000000, 16.000000)">
                <rect id="Rectangle" stroke="#AFAFAF" fill="#777777" x="0" y="0" width="39" height="15" rx="3"></rect>
                <path d="M7.5,10.5 L4.561,12.045 L5.122,8.773 L2.745,6.455 L6.031,5.977 L7.5,3 L8.97,5.977 L12.255,6.455 L9.878,8.773 L10.438,12.045 L7.5,10.5 Z M30.5,10.5 L29.5,10.5 L29.5,11.5 L30.5,11.5 L30.5,10.5 Z M31.5,10.5 L31.5,11.5 L32.5,11.5 L32.5,12.5 L28.5,12.5 L28.5,10.5 L27.5,10.5 L27.5,9.5 L26.5,9.5 L26.5,10.5 L25.5,10.5 L25.5,8.5 L27.5,8.5 L27.5,7.5 L25.5,7.5 L25.5,5.5 L26.5,5.5 L26.5,6.5 L27.5,6.5 L27.5,5.5 L32.5,5.5 L32.5,4.5 L25.5,4.5 L25.5,3.5 L28.5,3.5 L28.5,2.5 L29.5,2.5 L29.5,3.5 L31.5,3.5 L31.5,2.5 L32.5,2.5 L32.5,3.5 L35.5,3.5 L35.5,4.5 L33.5,4.5 L33.5,5.5 L35.5,5.5 L35.5,6.5 L33.5,6.5 L33.5,8.5 L32.5,8.5 L32.5,10.5 L31.5,10.5 Z M31.5,8.5 L29.5,8.5 L29.5,9.5 L31.5,9.5 L31.5,8.5 Z M32.5,6.5 L31.5,6.5 L31.5,7.5 L32.5,7.5 L32.5,6.5 Z M30.5,6.5 L29.5,6.5 L29.5,7.5 L30.5,7.5 L30.5,6.5 Z M22.5,5.5 L20.5,5.5 L20.5,8.5 L19.5,8.5 L19.5,6.5 L18.5,6.5 L18.5,12.5 L17.5,12.5 L17.5,9.5 L15.5,9.5 L15.5,3.5 L16.5,3.5 L16.5,8.5 L17.5,8.5 L17.5,2.5 L18.5,2.5 L18.5,5.5 L19.5,5.5 L19.5,4.5 L20.5,4.5 L20.5,2.5 L21.5,2.5 L21.5,4.5 L24.5,4.5 L24.5,5.5 L23.5,5.5 L23.5,9.5 L22.5,9.5 L22.5,5.5 Z M14.5,9.5 L15.5,9.5 L15.5,10.5 L14.5,10.5 L14.5,9.5 Z M20.5,8.5 L21.5,8.5 L21.5,9.5 L20.5,9.5 L20.5,8.5 Z M21.5,9.5 L22.5,9.5 L22.5,10.5 L21.5,10.5 L21.5,9.5 Z M22.5,10.5 L23.5,10.5 L23.5,11.5 L22.5,11.5 L22.5,10.5 Z M23.5,11.5 L24.5,11.5 L24.5,12.5 L23.5,12.5 L23.5,11.5 Z M20.5,10.5 L21.5,10.5 L21.5,11.5 L20.5,11.5 L20.5,10.5 Z M19.5,11.5 L20.5,11.5 L20.5,12.5 L19.5,12.5 L19.5,11.5 Z M26.5,10.5 L27.5,10.5 L27.5,11.5 L26.5,11.5 L26.5,10.5 Z M25.5,11.5 L26.5,11.5 L26.5,12.5 L25.5,12.5 L25.5,11.5 Z M32.5,10.5 L33.5,10.5 L33.5,11.5 L32.5,11.5 L32.5,10.5 Z M33.5,8.5 L34.5,8.5 L34.5,10.5 L33.5,10.5 L33.5,8.5 Z M34.5,10.5 L35.5,10.5 L35.5,12.5 L34.5,12.5 L34.5,10.5 Z M34.5,7.5 L35.5,7.5 L35.5,8.5 L34.5,8.5 L34.5,7.5 Z" id="Shape" fill="#FFFFFF"></path>
            </g>
            <g id="Group" transform="translate(0.000000, 16.000000)">
                <rect id="Rectangle" stroke="#C8C8C8" fill="#FFFFFF" x="0" y="0" width="39" height="15" rx="3"></rect>
                <polygon id="Path" fill="#888888" points="7.5 10.5 4.561 12.045 5.122 8.773 2.745 6.455 6.031 5.977 7.5 3 8.97 5.977 12.255 6.455 9.878 8.773 10.438 12.045"></polygon>
                <path d="M30.5,10.5 L29.5,10.5 L29.5,11.5 L30.5,11.5 L30.5,10.5 Z M31.5,10.5 L31.5,11.5 L32.5,11.5 L32.5,12.5 L28.5,12.5 L28.5,10.5 L27.5,10.5 L27.5,9.5 L26.5,9.5 L26.5,10.5 L25.5,10.5 L25.5,8.5 L27.5,8.5 L27.5,7.5 L25.5,7.5 L25.5,5.5 L26.5,5.5 L26.5,6.5 L27.5,6.5 L27.5,5.5 L32.5,5.5 L32.5,4.5 L25.5,4.5 L25.5,3.5 L28.5,3.5 L28.5,2.5 L29.5,2.5 L29.5,3.5 L31.5,3.5 L31.5,2.5 L32.5,2.5 L32.5,3.5 L35.5,3.5 L35.5,4.5 L33.5,4.5 L33.5,5.5 L35.5,5.5 L35.5,6.5 L33.5,6.5 L33.5,8.5 L32.5,8.5 L32.5,10.5 L31.5,10.5 Z M31.5,8.5 L29.5,8.5 L29.5,9.5 L31.5,9.5 L31.5,8.5 Z M32.5,6.5 L31.5,6.5 L31.5,7.5 L32.5,7.5 L32.5,6.5 Z M30.5,6.5 L29.5,6.5 L29.5,7.5 L30.5,7.5 L30.5,6.5 Z M22.5,5.5 L20.5,5.5 L20.5,8.5 L19.5,8.5 L19.5,6.5 L18.5,6.5 L18.5,12.5 L17.5,12.5 L17.5,9.5 L15.5,9.5 L15.5,3.5 L16.5,3.5 L16.5,8.5 L17.5,8.5 L17.5,2.5 L18.5,2.5 L18.5,5.5 L19.5,5.5 L19.5,4.5 L20.5,4.5 L20.5,2.5 L21.5,2.5 L21.5,4.5 L24.5,4.5 L24.5,5.5 L23.5,5.5 L23.5,9.5 L22.5,9.5 L22.5,5.5 Z M14.5,9.5 L15.5,9.5 L15.5,10.5 L14.5,10.5 L14.5,9.5 Z M20.5,8.5 L21.5,8.5 L21.5,9.5 L20.5,9.5 L20.5,8.5 Z M21.5,9.5 L22.5,9.5 L22.5,10.5 L21.5,10.5 L21.5,9.5 Z M22.5,10.5 L23.5,10.5 L23.5,11.5 L22.5,11.5 L22.5,10.5 Z M23.5,11.5 L24.5,11.5 L24.5,12.5 L23.5,12.5 L23.5,11.5 Z M20.5,10.5 L21.5,10.5 L21.5,11.5 L20.5,11.5 L20.5,10.5 Z M19.5,11.5 L20.5,11.5 L20.5,12.5 L19.5,12.5 L19.5,11.5 Z M26.5,10.5 L27.5,10.5 L27.5,11.5 L26.5,11.5 L26.5,10.5 Z M25.5,11.5 L26.5,11.5 L26.5,12.5 L25.5,12.5 L25.5,11.5 Z M32.5,10.5 L33.5,10.5 L33.5,11.5 L32.5,11.5 L32.5,10.5 Z M33.5,8.5 L34.5,8.5 L34.5,10.5 L33.5,10.5 L33.5,8.5 Z M34.5,10.5 L35.5,10.5 L35.5,12.5 L34.5,12.5 L34.5,10.5 Z M34.5,7.5 L35.5,7.5 L35.5,8.5 L34.5,8.5 L34.5,7.5 Z" id="Shape" fill="#777777"></path>
            </g>
            <g id="Group" transform="translate(40.000000, 0.000000)">
                <rect id="Rectangle" stroke="#AFAFAF" fill="#777777" x="0" y="0" width="39" height="15" rx="3"></rect>
                <path d="M6.5,6.936 L6.5,9.5 L2.5,6 L6.5,2.5 L6.5,4.5 C12.459,5.924 13.234,8.61 8.825,12.56 C11.161,9 10.385,7.126 6.5,6.936 Z M32.5,9.5 L30.5,9.5 L30.5,10.5 L29.5,10.5 L29.5,9.5 L27.5,9.5 L27.5,8.5 L28.5,8.5 L28.5,7.5 L27.5,7.5 L27.5,4.5 L26.5,4.5 L26.5,3.5 L27.5,3.5 L27.5,2.5 L28.5,2.5 L28.5,3.5 L35.5,3.5 L35.5,4.5 L34.5,4.5 L34.5,7.5 L29.5,7.5 L29.5,8.5 L34.5,8.5 L34.5,9.5 L33.5,9.5 L33.5,10.5 L32.5,10.5 L32.5,9.5 Z M28.5,6.5 L30.5,6.5 L30.5,5.5 L32.5,5.5 L32.5,6.5 L33.5,6.5 L33.5,4.5 L30.5,4.5 L30.5,5.5 L29.5,5.5 L29.5,4.5 L28.5,4.5 L28.5,6.5 Z M21.5,5.5 L21.5,9.5 L17.5,9.5 L17.5,5.5 L21.5,5.5 Z M20.5,6.5 L18.5,6.5 L18.5,8.5 L20.5,8.5 L20.5,6.5 Z M24.5,2.5 L24.5,12.5 L23.5,12.5 L23.5,11.5 L15.5,11.5 L15.5,12.5 L14.5,12.5 L14.5,2.5 L24.5,2.5 Z M23.5,3.5 L15.5,3.5 L15.5,10.5 L23.5,10.5 L23.5,3.5 Z M25.5,4.5 L26.5,4.5 L26.5,5.5 L25.5,5.5 L25.5,4.5 Z M26.5,9.5 L27.5,9.5 L27.5,10.5 L26.5,10.5 L26.5,9.5 Z M30.5,10.5 L32.5,10.5 L32.5,11.5 L30.5,11.5 L30.5,10.5 Z M25.5,11.5 L30.5,11.5 L30.5,12.5 L25.5,12.5 L25.5,11.5 Z M32.5,11.5 L35.5,11.5 L35.5,12.5 L32.5,12.5 L32.5,11.5 Z" id="Shape" fill="#FFFFFF"></path>
            </g>
            <g id="Group-2">
                <rect id="Rectangle" stroke="#C8C8C8" fill="#FFFFFF" x="0" y="0" width="39" height="15" rx="3"></rect>
                <path d="M6.5,6.936 L6.5,9.5 L2.5,6 L6.5,2.5 L6.5,4.5 C12.459,5.924 13.234,8.61 8.825,12.56 C11.161,9 10.385,7.126 6.5,6.936 Z" id="Path" fill="#888888"></path>
                <path d="M32.5,9.5 L30.5,9.5 L30.5,10.5 L29.5,10.5 L29.5,9.5 L27.5,9.5 L27.5,8.5 L28.5,8.5 L28.5,7.5 L27.5,7.5 L27.5,4.5 L26.5,4.5 L26.5,3.5 L27.5,3.5 L27.5,2.5 L28.5,2.5 L28.5,3.5 L35.5,3.5 L35.5,4.5 L34.5,4.5 L34.5,7.5 L29.5,7.5 L29.5,8.5 L34.5,8.5 L34.5,9.5 L33.5,9.5 L33.5,10.5 L32.5,10.5 L32.5,9.5 Z M28.5,6.5 L30.5,6.5 L30.5,5.5 L32.5,5.5 L32.5,6.5 L33.5,6.5 L33.5,4.5 L30.5,4.5 L30.5,5.5 L29.5,5.5 L29.5,4.5 L28.5,4.5 L28.5,6.5 Z M21.5,5.5 L21.5,9.5 L17.5,9.5 L17.5,5.5 L21.5,5.5 Z M20.5,6.5 L18.5,6.5 L18.5,8.5 L20.5,8.5 L20.5,6.5 Z M24.5,2.5 L24.5,12.5 L23.5,12.5 L23.5,11.5 L15.5,11.5 L15.5,12.5 L14.5,12.5 L14.5,2.5 L24.5,2.5 Z M23.5,3.5 L15.5,3.5 L15.5,10.5 L23.5,10.5 L23.5,3.5 Z M25.5,4.5 L26.5,4.5 L26.5,5.5 L25.5,5.5 L25.5,4.5 Z M26.5,9.5 L27.5,9.5 L27.5,10.5 L26.5,10.5 L26.5,9.5 Z M30.5,10.5 L32.5,10.5 L32.5,11.5 L30.5,11.5 L30.5,10.5 Z M25.5,11.5 L30.5,11.5 L30.5,12.5 L25.5,12.5 L25.5,11.5 Z M32.5,11.5 L35.5,11.5 L35.5,12.5 L32.5,12.5 L32.5,11.5 Z" id="Shape" fill="#777777"></path>
            </g>
        </g>
    </g>
</svg>
