<svg width="91" height="15" xmlns="http://www.w3.org/2000/svg"><path d="M2.112 5.904a21.813 21.813 0 0 1-1.744 2.08L0 6.768A18.194 18.194 0 0 0 3.776.032l1.072.512a19.501 19.501 0 0 1-1.584 3.584v10.656H2.112v-8.88zm10.304.576c.816 1.888 1.52 3.92 2.128 6.096l-1.008.448c-.64-2.336-1.36-4.416-2.144-6.208l1.024-.336zM6.912 3.184a19.927 19.927 0 0 1-1.776 3.392l-.992-.608A18.245 18.245 0 0 0 6.784.064l1.088.224c-.16.624-.352 1.216-.544 1.776h6.816v.752a21.667 21.667 0 0 1-.976 2.928l-1.104-.32c.368-.672.672-1.408.912-2.24H6.912zm2 11.488H6.816l-.24-1.088c.672.048 1.328.08 1.936.08.4 0 .608-.208.608-.624V4.528h1.12v8.8c0 .896-.448 1.344-1.328 1.344zm-2.4-8.064l1.04.288c-.576 2.224-1.328 4.176-2.256 5.856l-1.072-.384c.864-1.504 1.632-3.424 2.288-5.76zm15.188.96h3.664V4.592h1.168v2.976h3.824v1.12h-3.824v4.416h4.544v1.136H21.044v-1.136h4.32V8.688H21.7v-1.12zm-2.576.704c-.592.608-1.216 1.2-1.888 1.76l-.72-.944c2-1.648 3.552-3.536 4.672-5.664h-4.112V2.288h4.656c.32-.736.608-1.504.832-2.288l1.2.144a22.571 22.571 0 0 1-.752 2.144h8.048v1.136H22.5a19.724 19.724 0 0 1-2.24 3.536v7.872h-1.136v-6.56zM36.232.192l1.024.48a19.648 19.648 0 0 1-1.264 3.232v10.944h-1.104v-9.04c-.48.704-.992 1.392-1.536 2.032l-.384-1.216c1.488-1.872 2.576-4.016 3.264-6.432zm7.584 3.472c-.416 1.488-.976 2.72-1.648 3.696l-.672-.816c.928-1.552 1.568-3.632 1.904-6.24l1.088.176c-.112.736-.24 1.44-.4 2.112h3.568v1.072h-.784c-.048 3.04-.544 5.536-1.504 7.488a9.705 9.705 0 0 0 2.416 2.816l-.672.88a10.394 10.394 0 0 1-2.352-2.608 9.065 9.065 0 0 1-2.432 2.56l-.672-.88a8.259 8.259 0 0 0 2.528-2.72c-.704-1.424-1.152-3.056-1.344-4.912l.976-.304c.128 1.472.448 2.8.96 3.984.688-1.728 1.04-3.84 1.072-6.304h-2.032zM41.72 7.44v5.488h-3.504v1.04h-1.088V7.44h1.728V4.352h-2.064v-1.04h2.064V.336h1.104v2.976h2.08v1.04h-2.08V7.44h1.76zm-3.504 4.48h2.416V8.464h-2.416v3.456zm13.54-6.24A20.38 20.38 0 0 1 49.82 8l-.368-1.2C51.196 4.848 52.46 2.592 53.26.048l1.072.512a20.103 20.103 0 0 1-1.424 3.28v10.976h-1.152V5.68zM58.508.112h1.168v5.264h4.544v1.152h-4.544V14.8h-1.168V6.528h-4.336V5.376h4.336V.112zm18.34 7.68a37.936 37.936 0 0 1 3.424 6.304l-1.12.496c-.24-.544-.48-1.072-.704-1.584-2.784.496-6.192.864-10.192 1.104l-.32-1.184c.32-.128.656-.368 1.008-.736 2.048-2.096 4.256-5.184 6.624-9.264l1.152.576c-2.784 4.576-5.008 7.68-6.672 9.328a96.728 96.728 0 0 0 7.888-.864 35.417 35.417 0 0 0-2.192-3.824l1.104-.352zM72.352.048L73.6.32c-1.68 3.488-3.888 6.336-6.624 8.576l-.8-.96c2.496-2 4.56-4.624 6.176-7.888zm14.844 1.488c1.024 0 1.84.272 2.448.848.608.544.912 1.296.912 2.256 0 .72-.208 1.344-.592 1.872-.176.192-.608.608-1.312 1.232a3.027 3.027 0 0 0-.752.864 2.291 2.291 0 0 0-.304 1.184v.368h-1.28v-.368c0-.576.112-1.072.352-1.52.224-.416.576-.848 1.072-1.296.544-.48.88-.816 1.04-1.008.304-.4.464-.816.464-1.264 0-.64-.192-1.136-.544-1.488-.384-.384-.896-.56-1.568-.56-.8 0-1.392.256-1.776.784-.352.448-.528 1.056-.528 1.84h-1.28c.016-1.12.336-2.016.96-2.688.64-.704 1.536-1.056 2.688-1.056zm-.24 9.744c.272 0 .512.08.704.272.176.176.272.4.272.672a.928.928 0 0 1-.272.688 1.02 1.02 0 0 1-.704.272.981.981 0 0 1-.688-.272.916.916 0 0 1-.272-.688c0-.272.08-.496.272-.672a.916.916 0 0 1 .688-.272z" fill="#13A1DC" fill-rule="evenodd"/></svg>